<svg xmlns="http://www.w3.org/2000/svg" viewBox="0 0 64 64">
  <rect width="64" height="64" rx="14" fill="#2a1d16"/>
  <path d="M31 12v15c-5 1-9 4-12 8-5-1-10-6-10-13 0-8 5-14 13-16z" fill="#d9b092" stroke="#1d130f" stroke-width="2"/>
  <path d="M33 12v15c5 1 9 4 12 8 5-1 10-6 10-13 0-8-5-14-13-16z" fill="#d9b092" stroke="#1d130f" stroke-width="2"/>
  <path d="M24 36c2 8 5 14 8 18 3-4 6-10 8-18" fill="none" stroke="#f3e3bf" stroke-width="4" stroke-linecap="round"/>
  <path d="M32 10v14" stroke="#f3e3bf" stroke-width="4" stroke-linecap="round"/>
</svg>
