<svg xmlns="http://www.w3.org/2000/svg" width="96" height="96" viewBox="0 0 96 96" shape-rendering="crispEdges">
  <rect width="96" height="96" fill="#2d1b10"/>
  <rect x="2" y="2" width="92" height="92" fill="#5c3a20"/>
  <rect x="4" y="4" width="88" height="88" fill="#7b4f2a"/>
  <rect x="6" y="6" width="84" height="84" fill="#a77a47"/>
  <rect x="8" y="8" width="80" height="80" fill="#d8bf8f"/>
  <rect x="10" y="10" width="76" height="76" fill="#ead8ae"/>
  <rect x="8" y="8" width="80" height="2" fill="#f4e5bf"/>
  <rect x="8" y="86" width="80" height="2" fill="#9a794e"/>
  <rect x="8" y="8" width="2" height="80" fill="#f0ddb4"/>
  <rect x="86" y="8" width="2" height="80" fill="#9a7648"/>
  <rect x="0" y="0" width="8" height="8" fill="#c8a44d"/>
  <rect x="88" y="0" width="8" height="8" fill="#c8a44d"/>
  <rect x="0" y="88" width="8" height="8" fill="#c8a44d"/>
  <rect x="88" y="88" width="8" height="8" fill="#c8a44d"/>
  <rect x="2" y="2" width="4" height="4" fill="#f1d376"/>
  <rect x="90" y="2" width="4" height="4" fill="#f1d376"/>
  <rect x="2" y="90" width="4" height="4" fill="#f1d376"/>
  <rect x="90" y="90" width="4" height="4" fill="#f1d376"/>
</svg>
