<svg xmlns="http://www.w3.org/2000/svg" viewBox="0 0 64 64">
  <path d="M21 38 L14 45 C9 50, 14 58, 20 53 L29 44 C34 39, 29 31, 23 36" fill="none" stroke="#2a1b16" stroke-width="10" stroke-linecap="round"/>
  <path d="M35 20 L44 11 C50 6, 57 14, 52 20 L43 29 C38 34, 30 29, 36 23" fill="none" stroke="#2a1b16" stroke-width="10" stroke-linecap="round"/>
  <path d="M21 38 L14 45 C9 50, 14 58, 20 53 L29 44 C34 39, 29 31, 23 36 M35 20 L44 11 C50 6, 57 14, 52 20 L43 29 C38 34, 30 29, 36 23" fill="none" stroke="#b8a078" stroke-width="5" stroke-linecap="round"/>
</svg>
